<svg width="68" height="68" viewBox="0 0 68 68" fill="none" xmlns="http://www.w3.org/2000/svg">
<path d="M2.53125 33.625C2.53125 16.159 16.8614 2 34.5386 2C37.7966 2 40.941 2.48098 43.9029 3.375" stroke="white" stroke-width="4" stroke-linecap="round" stroke-linejoin="round"/>
<path fill-rule="evenodd" clip-rule="evenodd" d="M27.6503 40.4308C31.4545 44.1896 37.6224 44.1896 41.4267 40.4308C45.2309 36.672 60.9791 10.2499 59.5875 8.87494C58.1959 7.49994 31.4545 23.0602 27.6503 26.819C23.8461 30.5778 23.8461 36.672 27.6503 40.4308ZM34.5383 36.375C36.0755 36.375 37.3216 35.1438 37.3216 33.625C37.3216 32.1062 36.0755 30.875 34.5383 30.875C33.0012 30.875 31.7551 32.1062 31.7551 33.625C31.7551 35.1438 33.0012 36.375 34.5383 36.375Z" fill="white"/>
<ellipse cx="6.7061" cy="50.125" rx="2.78324" ry="2.75" fill="white"/>
<ellipse cx="17.8392" cy="61.125" rx="2.78324" ry="2.75" fill="white"/>
<ellipse cx="34.5384" cy="65.25" rx="2.78324" ry="2.75" fill="white"/>
<ellipse cx="51.2378" cy="61.125" rx="2.78324" ry="2.75" fill="white"/>
<ellipse cx="60.9793" cy="50.125" rx="2.78324" ry="2.75" fill="white"/>
<ellipse cx="65.1541" cy="33.625" rx="2.78324" ry="2.75" fill="white"/>
</svg>
